<?xml version="1.0" standalone="no"?>
<!DOCTYPE svg PUBLIC "-//W3C//DTD SVG 20010904//EN"
 "http://www.w3.org/TR/2001/REC-SVG-20010904/DTD/svg10.dtd">
<svg version="1.0" xmlns="http://www.w3.org/2000/svg"
 width="119.000000pt" height="119.000000pt" viewBox="0 0 119.000000 119.000000"
 preserveAspectRatio="xMidYMid meet">
<metadata>
Created by potrace 1.11, written by Peter Selinger 2001-2013
</metadata>
<g transform="translate(0.000000,119.000000) scale(0.100000,-0.100000)"
fill="#000000" stroke="none">
<path d="M300 594 l0 -594 83 0 82 0 0 419 c0 231 2 418 4 415 2 -2 54 -189
116 -416 l111 -413 97 -3 97 -3 0 595 0 595 -84 -1 -84 -2 0 -333 c0 -184 -2
-337 -6 -340 -3 -4 -6 -2 -6 3 0 5 -11 50 -24 99 -73 273 -138 514 -147 541
l-10 31 -114 1 -115 0 0 -594z"/>
</g>
</svg>
