<?xml version="1.0" standalone="no"?>
<!DOCTYPE svg PUBLIC "-//W3C//DTD SVG 20010904//EN"
 "http://www.w3.org/TR/2001/REC-SVG-20010904/DTD/svg10.dtd">
<svg version="1.0" xmlns="http://www.w3.org/2000/svg"
 width="360.000000pt" height="360.000000pt" viewBox="0 0 360.000000 360.000000"
 preserveAspectRatio="xMidYMid meet">
<metadata>
Created by potrace 1.11, written by Peter Selinger 2001-2013
</metadata>
<g transform="translate(0.000000,360.000000) scale(0.100000,-0.100000)"
fill="#000000" stroke="none">
<path d="M0 1800 l0 -1800 1800 0 1800 0 0 1800 0 1800 -1800 0 -1800 0 0
-1800z m1264 538 c3 -46 7 -108 8 -138 l2 -55 -49 0 -49 0 -22 88 c-12 49 -24
90 -26 92 -2 3 -105 5 -228 5 l-225 1 -3 -236 -2 -235 162 2 163 3 14 63 c15
65 31 79 78 70 17 -3 18 -18 21 -191 l2 -188 -42 3 -43 3 -14 66 -13 66 -154
8 c-84 3 -158 4 -164 0 -12 -8 -14 -471 -2 -479 5 -3 58 -8 118 -12 128 -8
146 -15 142 -52 l-3 -27 -268 -3 -268 -2 3 37 c2 24 8 39 18 40 8 1 36 5 63 8
l47 6 0 520 c0 407 -3 520 -12 524 -7 2 -39 6 -70 10 l-58 6 0 40 0 39 434 0
434 0 6 -82z m451 42 c0 -31 -4 -36 -30 -41 -16 -4 -49 -7 -72 -8 -23 0 -44
-5 -47 -10 -3 -4 8 -51 24 -102 119 -385 210 -702 230 -804 l23 -119 38 144
c20 80 78 280 129 445 l92 300 -22 68 c-23 74 -22 72 -92 82 l-48 6 0 40 0 39
215 0 215 0 0 -39 0 -40 -71 -7 c-43 -4 -73 -12 -76 -20 -2 -7 47 -190 111
-406 63 -216 125 -438 137 -493 12 -55 25 -104 29 -108 4 -5 17 45 30 111 12
66 70 294 130 508 59 214 106 392 104 395 -2 4 -40 10 -84 13 l-80 7 0 40 0
39 200 0 200 0 0 -39 0 -39 -56 -8 -56 -9 -55 -185 c-30 -102 -104 -351 -164
-555 -61 -203 -112 -378 -115 -387 -4 -15 -17 -18 -72 -18 l-67 0 -53 173
c-134 432 -206 657 -211 657 -3 0 -22 -51 -41 -113 -18 -61 -75 -247 -126
-412 l-92 -300 -62 0 -63 0 -34 100 c-19 55 -98 309 -177 564 -79 255 -150
467 -156 471 -7 4 -34 11 -61 14 -47 6 -49 8 -49 40 0 18 3 36 7 40 4 3 99 5
212 4 l206 -3 0 -35z"/>
</g>
</svg>
